<svg width="145" height="30" viewBox="0 0 145 30" fill="none" xmlns="http://www.w3.org/2000/svg">
<g id="Logo">
<path id="Heart" fill-rule="evenodd" clip-rule="evenodd" d="M25.161 4.57696C25.4386 2.96821 25.8459 1.95659 26.297 1.95465H26.298C27.1392 1.95755 27.8212 5.46588 27.8212 9.79742C27.8212 14.129 27.1382 17.6402 26.296 17.6402C25.9508 17.6402 25.6322 17.044 25.3756 16.045C24.9703 19.7021 24.129 22.2162 23.1552 22.2162C22.4017 22.2162 21.7254 20.706 21.2714 18.3243C20.9615 22.8539 20.1812 26.0675 19.2694 26.0675C18.6971 26.0675 18.1754 24.794 17.7891 22.7205C17.3246 27.0009 16.2516 30 15.0002 30C13.7488 30 12.6739 27.0018 12.2113 22.7205C11.8279 24.794 11.3062 26.0675 10.731 26.0675C9.81918 26.0675 9.04088 22.8539 8.72899 18.3243C8.27498 20.706 7.60065 22.2162 6.84524 22.2162C5.87237 22.2162 5.03016 19.7031 4.6248 16.045C4.37013 17.0469 4.04966 17.6402 3.70438 17.6402C2.86218 17.6402 2.17926 14.129 2.17926 9.79742C2.17926 5.46588 2.86218 1.95465 3.70438 1.95465C4.15648 1.95465 4.56089 2.96918 4.84131 4.57696C5.29055 1.80296 6.02021 0 6.84524 0C7.82479 0 8.67367 2.54984 9.07522 6.25238C9.46819 3.5576 10.0643 1.83967 10.732 1.83967C11.6676 1.83967 12.4631 5.21853 12.7578 9.93172C13.312 7.51522 14.1141 5.99923 15.0021 5.99923C15.8901 5.99923 16.6923 7.51619 17.2455 9.93172C17.5411 5.21853 18.3356 1.83967 19.2713 1.83967C19.938 1.83967 20.5332 3.5576 20.9281 6.25238C21.3287 2.54984 22.1775 0 23.1571 0C23.9793 0 24.7118 1.80392 25.161 4.57696ZM0 9.02687C0 7.09058 0.387242 5.52048 0.865095 5.52048C1.34295 5.52048 1.73019 7.09058 1.73019 9.02687C1.73019 10.9632 1.34295 12.5333 0.865095 12.5333C0.387242 12.5333 0 10.9632 0 9.02687ZM28.2697 9.02687C28.2697 7.09058 28.6569 5.52048 29.1348 5.52048C29.6126 5.52048 29.9998 7.09058 29.9998 9.02687C29.9998 10.9632 29.6126 12.5333 29.1348 12.5333C28.6569 12.5333 28.2697 10.9632 28.2697 9.02687Z" fill="#A238FF"/>
<path id="Deezer" fill-rule="evenodd" clip-rule="evenodd" d="M38.6374 5.00885H47.092C52.3269 5.00885 56.0286 8.47793 56.0286 13.4088C56.0286 18.3397 52.3269 21.8088 47.092 21.8088H38.6374V5.00885ZM45.2084 17.2706H46.7416C48.3843 17.2706 49.2605 16.1797 49.2605 13.4088C49.2605 10.6379 48.3843 9.54701 46.7416 9.54701H45.2084V17.2706ZM72.3657 21.8088H58.479V5.00885H72.3657V9.54701H65.0281V11.4888H71.9276V15.1979H65.0281V17.2706H72.3657V21.8088ZM89.4259 21.8088H75.5393V5.00885H89.4259V9.54701H82.0883V11.4888H88.9879V15.1979H82.0883V17.2706H89.4259V21.8088ZM145 21.8088C144.054 19.2399 142.73 16.4989 140.95 13.4265C143.032 12.8182 144.277 11.5106 144.277 9.50338C144.277 6.44884 141.452 5.00885 136.983 5.00885H127.784V21.8088H134.355V14.8595C135.815 17.3088 136.89 19.62 137.597 21.8088H145ZM134.355 12.5143V9.54701H136.633C137.597 9.54701 138.144 10.0706 138.144 11.0306C138.144 11.9906 137.597 12.5143 136.633 12.5143H134.355ZM124.593 21.8088H110.706V5.00885H124.593V9.54701H117.255V11.4888H124.155V15.1979H117.255V17.2706H124.593V21.8088ZM92.7304 9.54701H99.5105C96.6975 11.8397 94.3823 14.4364 92.599 17.2706V21.8088H107.515V17.2706H100.06C101.768 14.7947 104.155 12.3293 107.515 9.54701V5.00885H92.7304V9.54701Z" fill="black"/>
</g>
</svg>
