<svg width="170" height="30" viewBox="0 0 170 30" fill="none" xmlns="http://www.w3.org/2000/svg">
<g id="Deezer">
<path id="Vector" d="M31.7863 29.5688H55.7774V21.6978H43.1007V18.103H55.0206V11.67H43.1007V8.30215H55.7774V0.431236H31.7863V29.5688Z" fill="white"/>
<path id="Vector_2" d="M58.5016 29.5688H82.4927V21.6978H69.816V18.103H81.7359V11.67H69.816V8.30215H82.4927V0.431236H58.5016V29.5688Z" fill="white"/>
<path id="Vector_3" d="M169.565 29.5688C167.93 25.1134 165.643 20.3594 162.568 15.0307C166.165 13.9756 168.316 11.7078 168.316 8.22647C168.316 2.92874 163.435 0.431236 155.715 0.431236H139.822V29.5688H151.174V17.516C153.696 21.7641 155.555 25.7726 156.775 29.5688H169.565ZM151.174 13.4485V8.30215H155.11C156.775 8.30215 157.721 9.21034 157.721 10.8753C157.721 12.5403 156.775 13.4485 155.11 13.4485H151.174Z" fill="white"/>
<path id="Vector_4" d="M113.106 29.5688H137.098V21.6978H124.421V18.103H136.341V11.67H124.421V8.30215H137.098V0.431236H113.106V29.5688Z" fill="white"/>
<path id="Vector_5" d="M85.217 8.30215H96.9307C92.0708 12.2785 88.071 16.7823 84.99 21.6978V29.5688H110.76V21.6978H97.8794C100.831 17.4037 104.955 13.1276 110.76 8.30215V0.431236H85.217V8.30215Z" fill="white"/>
<path id="Vector_6" d="M14.6066 0.431236H0V29.5688H14.6066C23.6506 29.5688 30.0457 23.5521 30.0457 15C30.0457 6.44795 23.6506 0.431236 14.6066 0.431236ZM14.0011 21.6978H11.3523V8.30215H14.0011C16.8392 8.30215 18.3528 10.1942 18.3528 15C18.3528 19.8058 16.8392 21.6978 14.0011 21.6978Z" fill="white"/>
</g>
</svg>
