<svg width="171" height="30" viewBox="0 0 171 30" fill="none" xmlns="http://www.w3.org/2000/svg">
<g id="Sub">
<g id="text">
<path d="M0.0146484 0.416666H9.37071C11.3404 0.416666 13.1081 0.770201 14.6737 1.47727C16.2394 2.18434 17.4641 3.16919 18.348 4.43182C19.2571 5.66919 19.7116 7.07071 19.7116 8.63636C19.7116 10.6061 19.0298 12.2727 17.6662 13.6364C16.3025 15 14.4717 15.8712 12.1737 16.25C15.2545 20.4419 17.9187 24.8864 20.1662 29.5833H13.4616C11.2646 24.6843 8.72677 20.4672 5.84798 16.9318V29.5833H0.0146484V0.416666ZM9.18131 13.7121C10.6712 13.7121 11.8328 13.3333 12.6662 12.5758C13.4995 11.8182 13.9162 10.7449 13.9162 9.35606C13.9162 7.99242 13.4995 6.93182 12.6662 6.17424C11.8328 5.41667 10.6712 5.03788 9.18131 5.03788H5.84798V13.7121H9.18131Z" fill="#0F0D13"/>
<path d="M38.6214 0.416666V5.26515H28.3563V12.5379H37.9017V17.2348H28.3563V24.7348H38.6214V29.5833H22.5229V0.416666H38.6214Z" fill="#0F0D13"/>
<path d="M54.6788 9.88636C54.0474 6.37626 52.5702 4.62121 50.2469 4.62121C49.1611 4.62121 48.2772 4.94949 47.5954 5.60606C46.9136 6.23737 46.5727 7.04545 46.5727 8.0303C46.5727 8.81313 46.8 9.48232 47.2545 10.0379C47.7091 10.5682 48.4919 11.1237 49.603 11.7045L54.4894 13.7879C58.353 15.6566 60.2848 18.2323 60.2848 21.5152C60.2848 23.1061 59.8682 24.5455 59.0348 25.8333C58.2015 27.1212 57.0525 28.1439 55.5879 28.9015C54.1485 29.6338 52.5323 30 50.7394 30C48.0626 30 45.8151 29.1162 43.9969 27.3485C42.1788 25.5556 40.9414 23.0303 40.2848 19.7727H45.9666C46.2949 21.5909 46.8631 22.9798 47.6712 23.9394C48.4793 24.899 49.4894 25.3788 50.7015 25.3788C51.8126 25.3788 52.7217 25.0505 53.4288 24.3939C54.1358 23.7374 54.4894 22.8914 54.4894 21.8561C54.4894 21.0732 54.2621 20.404 53.8075 19.8485C53.353 19.2929 52.6081 18.75 51.5727 18.2197L46.6485 16.1364C44.6788 15.1768 43.2141 14.0657 42.2545 12.803C41.3202 11.5152 40.853 10.0505 40.853 8.40909C40.853 6.84343 41.257 5.42929 42.0651 4.16667C42.8985 2.87879 44.0348 1.86869 45.4742 1.13636C46.9136 0.378787 48.5045 0 50.2469 0C52.7974 0 54.9439 0.858585 56.6863 2.57576C58.4288 4.26768 59.6535 6.70454 60.3606 9.88636H54.6788Z" fill="#0F0D13"/>
<path d="M79.421 0.416666V5.26515H69.1559V12.5379H78.7013V17.2348H69.1559V24.7348H79.421V29.5833H63.3225V0.416666H79.421Z" fill="#0F0D13"/>
<path d="M81.6701 29.5833C83.6145 19.4318 85.8115 9.7096 88.261 0.416666H96.5185C99.1196 10.2146 101.317 19.9369 103.109 29.5833H97.0867C96.6827 27.1086 96.4049 25.4167 96.2534 24.5076L96.1019 23.6364H88.564L88.4125 24.5076C88.261 25.4167 87.9832 27.1086 87.5792 29.5833H81.6701ZM95.3064 19.1288C94.2711 13.548 93.2862 8.76263 92.3519 4.77273C91.2913 9.24242 90.2938 14.0278 89.3595 19.1288H95.3064Z" fill="#0F0D13"/>
<path d="M105.75 0.416666H115.106C117.075 0.416666 118.843 0.770201 120.409 1.47727C121.974 2.18434 123.199 3.16919 124.083 4.43182C124.992 5.66919 125.447 7.07071 125.447 8.63636C125.447 10.6061 124.765 12.2727 123.401 13.6364C122.038 15 120.207 15.8712 117.909 16.25C120.99 20.4419 123.654 24.8864 125.901 29.5833H119.197C117 24.6843 114.462 20.4672 111.583 16.9318V29.5833H105.75V0.416666ZM114.916 13.7121C116.406 13.7121 117.568 13.3333 118.401 12.5758C119.235 11.8182 119.651 10.7449 119.651 9.35606C119.651 7.99242 119.235 6.93182 118.401 6.17424C117.568 5.41667 116.406 5.03788 114.916 5.03788H111.583V13.7121H114.916Z" fill="#0F0D13"/>
<path d="M137.63 30C135.559 30 133.729 29.3813 132.138 28.1439C130.572 26.8813 129.347 25.1136 128.463 22.8409C127.58 20.5682 127.138 17.9545 127.138 15C127.138 12.0455 127.58 9.43182 128.463 7.15909C129.347 4.88636 130.572 3.13131 132.138 1.89394C133.729 0.631313 135.559 0 137.63 0C140.181 0 142.327 0.984849 144.069 2.95455C145.837 4.89899 147.074 7.70202 147.782 11.3636H141.948C141.595 9.09091 141.064 7.44949 140.357 6.43939C139.676 5.40404 138.792 4.88636 137.706 4.88636C134.701 4.88636 133.198 8.25758 133.198 15C133.198 21.7424 134.701 25.1136 137.706 25.1136C138.792 25.1136 139.676 24.6086 140.357 23.5985C141.064 22.5631 141.595 20.9091 141.948 18.6364H147.782C147.074 22.298 145.837 25.1136 144.069 27.0833C142.327 29.0278 140.181 30 137.63 30Z" fill="#0F0D13"/>
<path d="M156.341 0.416666V12.5H164.409V0.416666H170.242V29.5833H164.409V17.3485H156.341V29.5833H150.507V0.416666H156.341Z" fill="#0F0D13"/>
</g>
</g>
</svg>
